<svg width="31" height="31" viewBox="0 0 31 31" fill="none" xmlns="http://www.w3.org/2000/svg">
<path d="M18.7117 6.45832C19.9733 6.70447 21.1328 7.32149 22.0417 8.23041C22.9507 9.13932 23.5677 10.2988 23.8138 11.5604M18.7117 1.29166C21.3329 1.58284 23.7771 2.75663 25.6431 4.62029C27.5091 6.48395 28.686 8.92671 28.9805 11.5475M27.6888 21.855V25.73C27.6903 26.0897 27.6166 26.4458 27.4725 26.7754C27.3284 27.105 27.117 27.4009 26.8519 27.6441C26.5868 27.8873 26.2739 28.0724 25.9331 28.1877C25.5923 28.3029 25.2313 28.3457 24.873 28.3133C20.8983 27.8814 17.0804 26.5233 13.7259 24.3479C10.605 22.3648 7.95904 19.7188 5.9759 16.5979C3.79296 13.2282 2.43446 9.39169 2.01048 5.39916C1.97821 5.04197 2.02066 4.68197 2.13513 4.34209C2.24961 4.0022 2.4336 3.68988 2.67539 3.425C2.91718 3.16012 3.21148 2.94849 3.53955 2.80358C3.86761 2.65867 4.22226 2.58366 4.5809 2.58332H8.4559C9.08275 2.57715 9.69047 2.79913 10.1658 3.20789C10.6411 3.61664 10.9515 4.18428 11.0392 4.80499C11.2028 6.04508 11.5061 7.26268 11.9434 8.43457C12.1172 8.89689 12.1548 9.39934 12.0518 9.88238C11.9488 10.3654 11.7094 10.8088 11.3622 11.16L9.72173 12.8004C11.5605 16.0342 14.238 18.7116 17.4717 20.5504L19.1121 18.91C19.4633 18.5627 19.9067 18.3234 20.3898 18.2204C20.8728 18.1173 21.3752 18.155 21.8376 18.3287C23.0095 18.766 24.2271 19.0694 25.4672 19.2329C26.0946 19.3214 26.6676 19.6375 27.0773 20.1209C27.4869 20.6044 27.7045 21.2215 27.6888 21.855Z" stroke="#FFC48C" stroke-width="4" stroke-linecap="round" stroke-linejoin="round"/>
</svg>
