<svg width="231" height="428" viewBox="0 0 231 428" fill="none" xmlns="http://www.w3.org/2000/svg">
<path d="M118 7.71167L120.361 6.88934L117.961 8.58307e-06L115.631 6.91312L118 7.71167ZM33.5 86.7117L32.3884 84.4724L33.5 89.2117V86.7117ZM37 425.212V427.712H37.382L37.7466 427.598L37 425.212ZM143.96 125.712L146.436 125.365L143.96 125.712ZM75 242.212L73.2322 240.444L70.9284 242.748L73.75 244.377L75 242.212ZM46.1307 376.64L43.6738 376.178L46.1307 376.64ZM192.21 376.64L194.661 376.146L192.21 376.64ZM163.492 234.152L165.943 233.658L163.492 234.152ZM213.5 86.7117H216V84.2117H213.5V86.7117ZM213.5 123.212L211.595 124.831L216 130.013V123.212H213.5ZM205 113.212V110.712H199.594L203.095 114.831L205 113.212ZM32 86.7117H34.5V84.2117H32V86.7117ZM32 123.212L30.0952 124.831L34.5 130.013V123.212H32ZM40 115.712C41.3807 115.712 42.5 114.592 42.5 113.212C42.5 111.831 41.3807 110.712 40 110.712V113.212V115.712ZM23.5 97.4617C22.1193 97.4617 21 98.581 21 99.9617C21 101.342 22.1193 102.462 23.5 102.462V99.9617V97.4617ZM40 102.462C41.3807 102.462 42.5 101.342 42.5 99.9617C42.5 98.581 41.3807 97.4617 40 97.4617V99.9617V102.462ZM23.5 113.212V110.712H18.0939L21.5952 114.831L23.5 113.212ZM30.5 203.712L28.5952 205.331L33 210.513V203.712H30.5ZM38.5 196.212C39.8807 196.212 41 195.092 41 193.712C41 192.331 39.8807 191.212 38.5 191.212V193.712V196.212ZM22 177.962C20.6193 177.962 19.5 179.081 19.5 180.462C19.5 181.842 20.6193 182.962 22 182.962V180.462V177.962ZM38.5 182.962C39.8807 182.962 41 181.842 41 180.462C41 179.081 39.8807 177.962 38.5 177.962V180.462V182.962ZM22 193.712V191.212H16.5939L20.0952 195.331L22 193.712ZM213.5 167.212H216V164.712H213.5V167.212ZM213.5 203.712L211.595 205.331L216 210.513V203.712H213.5ZM221.5 196.212C222.881 196.212 224 195.092 224 193.712C224 192.331 222.881 191.212 221.5 191.212V193.712V196.212ZM205 177.962C203.619 177.962 202.5 179.081 202.5 180.462C202.5 181.842 203.619 182.962 205 182.962V180.462V177.962ZM221.5 182.962C222.881 182.962 224 181.842 224 180.462C224 179.081 222.881 177.962 221.5 177.962V180.462V182.962ZM205 193.712V191.212H199.594L203.095 195.331L205 193.712ZM118 7.71167L115.631 6.91312L100.631 51.4131L103 52.2117L105.369 53.0102L120.369 8.51022L118 7.71167ZM103 52.2117L101.888 49.9724L32.3884 84.4724L33.5 86.7117L34.6116 88.951L104.112 54.451L103 52.2117ZM33.5 86.7117V89.2117H97V86.7117V84.2117H33.5V86.7117ZM97 86.7117L99.463 87.14L105.463 52.64L103 52.2117L100.537 51.7833L94.537 86.2833L97 86.7117ZM89 136.712L87.8442 134.495L29.3442 164.995L30.5 167.212L31.6558 169.428L90.1558 138.928L89 136.712ZM30.5 167.212V169.712H85.5V167.212V164.712H30.5V167.212ZM85.5 167.212L87.9837 167.497L91.4837 136.997L89 136.712L86.5163 136.427L83.0163 166.927L85.5 167.212ZM37 425.212V422.712H0V425.212V427.712H37V425.212ZM0 425.212V427.712H202V425.212V422.712H0V425.212ZM202 425.212V427.712H230.5V425.212V422.712H202V425.212ZM150 167.212V169.712H209V167.212V164.712H150V167.212ZM209 167.212L210.082 164.958L146.582 134.458L145.5 136.712L144.418 138.965L207.918 169.465L209 167.212ZM145.5 136.712L143.027 137.077L147.527 167.577L150 167.212L152.473 166.847L147.973 136.347L145.5 136.712ZM118 7.71167L115.639 8.534L131.139 53.034L133.5 52.2117L135.861 51.3893L120.361 6.88934L118 7.71167ZM133.5 52.2117L132.461 54.4855L207.961 88.9855L209 86.7117L210.039 84.4378L134.539 49.9378L133.5 52.2117ZM209 86.7117V84.2117H138.5V86.7117V89.2117H209V86.7117ZM138.5 86.7117L140.974 86.3531L135.974 51.8531L133.5 52.2117L131.026 52.5702L136.026 87.0702L138.5 86.7117ZM138.5 86.7117V84.2117H97V86.7117V89.2117H138.5V86.7117ZM103 52.2117V54.7117H133.5V52.2117V49.7117H103V52.2117ZM89 136.712L90.7766 138.471L140.277 88.4705L138.5 86.7117L136.723 84.9528L87.2234 134.953L89 136.712ZM97 86.7117L95.2055 88.4523L143.706 138.452L145.5 136.712L147.294 134.971L98.7945 84.971L97 86.7117ZM138.5 86.7117L136.024 87.0583L141.484 126.058L143.96 125.712L146.436 125.365L140.976 86.3651L138.5 86.7117ZM143.96 125.712L141.484 126.058L143.024 137.058L145.5 136.712L147.976 136.365L146.436 125.365L143.96 125.712ZM85.5 167.212L86.9472 169.25L145.407 127.75L143.96 125.712L142.513 123.673L84.0528 165.173L85.5 167.212ZM97 86.7117L94.5314 86.3167L88.2914 125.317L90.76 125.712L93.2286 126.107L99.4686 87.1066L97 86.7117ZM90.76 125.712L88.2914 125.317L86.5314 136.317L89 136.712L91.4686 137.107L93.2286 126.107L90.76 125.712ZM150 167.212L151.434 165.164L92.1944 123.664L90.76 125.712L89.3256 127.759L148.566 169.259L150 167.212ZM85.5 167.212V169.712H150V167.212V164.712H85.5V167.212ZM150 167.212L148.232 165.444L73.2322 240.444L75 242.212L76.7678 243.979L151.768 168.979L150 167.212ZM75 242.212L73.75 244.377L175.734 303.257L176.984 301.092L178.234 298.927L76.25 240.047L75 242.212ZM46.1307 376.64L43.6738 376.178L34.543 424.75L37 425.212L39.457 425.674L48.5877 377.102L46.1307 376.64ZM176.984 301.092L175.734 298.927L44.8807 374.475L46.1307 376.64L47.3807 378.805L178.234 303.257L176.984 301.092ZM46.1307 376.64L45.387 379.027L201.256 427.598L202 425.212L202.744 422.825L46.8745 374.253L46.1307 376.64ZM202 425.212L204.451 424.718L194.661 376.146L192.21 376.64L189.76 377.134L199.549 425.706L202 425.212ZM192.21 376.64L194.661 376.146L179.434 300.598L176.984 301.092L174.533 301.586L189.76 377.134L192.21 376.64ZM192.21 376.64L191.464 374.254L36.2534 422.826L37 425.212L37.7466 427.598L192.957 379.026L192.21 376.64ZM85.5 167.212L83.043 166.75L57.8756 300.63L60.3326 301.092L62.7896 301.554L87.957 167.674L85.5 167.212ZM60.3326 301.092L57.8756 300.63L43.6738 376.178L46.1307 376.64L48.5877 377.102L62.7896 301.554L60.3326 301.092ZM192.21 376.64L193.453 374.471L61.5753 298.923L60.3326 301.092L59.0899 303.261L190.968 378.809L192.21 376.64ZM176.984 301.092L179.434 300.598L165.943 233.658L163.492 234.152L161.041 234.646L174.533 301.586L176.984 301.092ZM163.492 234.152L165.943 233.658L152.451 166.718L150 167.212L147.549 167.706L161.041 234.646L163.492 234.152ZM60.3326 301.092L61.6934 303.189L164.853 236.249L163.492 234.152L162.131 232.055L58.9717 298.995L60.3326 301.092ZM163.492 234.152L165.12 232.255L87.1282 165.315L85.5 167.212L83.8718 169.109L161.864 236.049L163.492 234.152ZM209 86.7117V89.2117H213.5V86.7117V84.2117H209V86.7117ZM213.5 113.212H211V123.212H213.5H216V113.212H213.5ZM213.25 113.212V115.712H221.5V113.212V110.712H213.25V113.212ZM213.5 86.7117H211V99.9617H213.5H216V86.7117H213.5ZM213.5 99.9617H211V113.212H213.5H216V99.9617H213.5ZM213.25 113.212L215.75 113.259L216 100.009L213.5 99.9617L211 99.9145L210.75 113.165L213.25 113.212ZM205 99.9617V102.462H221.5V99.9617V97.4617H205V99.9617ZM213.25 113.212V110.712H205V113.212V115.712H213.25V113.212ZM205 113.212L203.095 114.831L211.595 124.831L213.5 123.212L215.405 121.593L206.905 111.593L205 113.212ZM213.25 113.212V115.712H213.5V113.212V110.712H213.25V113.212ZM213.5 113.212V115.712H221.5V113.212V110.712H213.5V113.212ZM205 99.9617V102.462H213.5V99.9617V97.4617H205V99.9617ZM213.5 99.9617V102.462H221.5V99.9617V97.4617H213.5V99.9617ZM27.5 86.7117V89.2117H32V86.7117V84.2117H27.5V86.7117ZM32 113.212H29.5V123.212H32H34.5V113.212H32ZM31.75 113.212V115.712H32V113.212V110.712H31.75V113.212ZM32 113.212V115.712H40V113.212V110.712H32V113.212ZM32 86.7117H29.5V99.9617H32H34.5V86.7117H32ZM32 99.9617H29.5V113.212H32H34.5V99.9617H32ZM31.75 113.212L34.2496 113.259L34.4996 100.009L32 99.9617L29.5004 99.9145L29.2504 113.165L31.75 113.212ZM23.5 99.9617V102.462H32V99.9617V97.4617H23.5V99.9617ZM32 99.9617V102.462H40V99.9617V97.4617H32V99.9617ZM31.75 113.212V110.712H23.5V113.212V115.712H31.75V113.212ZM23.5 113.212L21.5952 114.831L30.0952 124.831L32 123.212L33.9049 121.593L25.4048 111.593L23.5 113.212ZM26 167.212V169.712H30.5V167.212V164.712H26V167.212ZM30.5 193.712H28V203.712H30.5H33V193.712H30.5ZM30.25 193.712V196.212H30.5V193.712V191.212H30.25V193.712ZM30.5 193.712V196.212H38.5V193.712V191.212H30.5V193.712ZM30.5 167.212H28V180.462H30.5H33V167.212H30.5ZM30.5 180.462H28V193.712H30.5H33V180.462H30.5ZM30.25 193.712L32.7496 193.759L32.9996 180.509L30.5 180.462L28.0004 180.415L27.7504 193.665L30.25 193.712ZM22 180.462V182.962H30.5V180.462V177.962H22V180.462ZM30.5 180.462V182.962H38.5V180.462V177.962H30.5V180.462ZM30.25 193.712V191.212H22V193.712V196.212H30.25V193.712ZM22 193.712L20.0952 195.331L28.5952 205.331L30.5 203.712L32.4049 202.093L23.9048 192.093L22 193.712ZM209 167.212V169.712H213.5V167.212V164.712H209V167.212ZM213.5 193.712H211V203.712H213.5H216V193.712H213.5ZM213.25 193.712V196.212H213.5V193.712V191.212H213.25V193.712ZM213.5 193.712V196.212H221.5V193.712V191.212H213.5V193.712ZM213.5 167.212H211V180.462H213.5H216V167.212H213.5ZM213.5 180.462H211V193.712H213.5H216V180.462H213.5ZM213.25 193.712L215.75 193.759L216 180.509L213.5 180.462L211 180.415L210.75 193.665L213.25 193.712ZM205 180.462V182.962H213.5V180.462V177.962H205V180.462ZM213.5 180.462V182.962H221.5V180.462V177.962H213.5V180.462ZM213.25 193.712V191.212H205V193.712V196.212H213.25V193.712ZM205 193.712L203.095 195.331L211.595 205.331L213.5 203.712L215.405 202.093L206.905 192.093L205 193.712Z" fill="#FF9E42"/>
</svg>
