<svg width="35" height="35" viewBox="0 0 35 35" fill="none" xmlns="http://www.w3.org/2000/svg">
<path d="M17.4975 9.4712C15.91 9.4712 14.3582 9.94194 13.0383 10.8239C11.7184 11.7058 10.6897 12.9594 10.0822 14.426C9.47468 15.8926 9.31573 17.5064 9.62543 19.0633C9.93512 20.6203 10.6996 22.0504 11.822 23.1729C12.9445 24.2954 14.3747 25.0599 15.9316 25.3696C17.4886 25.6793 19.1024 25.5203 20.569 24.9128C22.0356 24.3053 23.2892 23.2766 24.1711 21.9567C25.053 20.6367 25.5238 19.0849 25.5238 17.4975C25.5216 15.3695 24.6752 13.3292 23.1705 11.8245C21.6658 10.3198 19.6255 9.47342 17.4975 9.4712ZM17.4975 22.8484C16.4392 22.8484 15.4047 22.5345 14.5247 21.9466C13.6448 21.3586 12.9589 20.5229 12.5539 19.5452C12.1489 18.5674 12.043 17.4916 12.2494 16.4536C12.4559 15.4156 12.9655 14.4622 13.7139 13.7139C14.4622 12.9655 15.4156 12.4559 16.4536 12.2494C17.4916 12.043 18.5674 12.1489 19.5452 12.5539C20.5229 12.9589 21.3586 13.6448 21.9466 14.5247C22.5345 15.4047 22.8484 16.4392 22.8484 17.4975C22.8484 18.9166 22.2846 20.2776 21.2811 21.2811C20.2776 22.2846 18.9166 22.8484 17.4975 22.8484ZM32.2124 17.8587C32.219 17.6179 32.219 17.3771 32.2124 17.1363L34.7072 14.0194C34.838 13.8558 34.9286 13.6637 34.9715 13.4586C35.0145 13.2536 35.0087 13.0413 34.9547 12.8389C34.5457 11.3015 33.9339 9.82545 33.1354 8.44952C33.0308 8.26946 32.8857 8.11629 32.7115 8.00221C32.5373 7.88812 32.3389 7.81627 32.1321 7.79237L28.1658 7.35092C28.0008 7.17702 27.8336 7.00981 27.6641 6.84928L27.1959 2.87292C27.1718 2.66593 27.0997 2.46743 26.9854 2.29324C26.871 2.11905 26.7175 1.974 26.5371 1.86964C25.1607 1.0726 23.6847 0.461415 22.1477 0.0520173C21.9452 -0.00183089 21.7328 -0.00733844 21.5278 0.0359385C21.3227 0.0792153 21.1307 0.170066 20.9672 0.301167L17.8587 2.78263C17.6179 2.78263 17.3771 2.78263 17.1363 2.78263L14.0194 0.292806C13.8558 0.161991 13.6637 0.0714441 13.4586 0.0284588C13.2536 -0.0145266 13.0413 -0.00874829 12.8389 0.0453286C11.3018 0.455049 9.82579 1.06681 8.44952 1.86462C8.26946 1.96917 8.11629 2.11431 8.00221 2.28849C7.88812 2.46267 7.81627 2.66107 7.79237 2.86791L7.35092 6.84092C7.17702 7.00702 7.00981 7.17423 6.84928 7.34256L2.87292 7.79906C2.66593 7.82314 2.46743 7.89525 2.29324 8.00963C2.11905 8.12401 1.974 8.27751 1.86964 8.45788C1.0726 9.83433 0.461415 11.3103 0.0520173 12.8473C-0.00183089 13.0498 -0.00733844 13.2622 0.0359385 13.4672C0.0792153 13.6723 0.170066 13.8643 0.301167 14.0278L2.78263 17.1363C2.78263 17.3771 2.78263 17.6179 2.78263 17.8587L0.292806 20.9756C0.161991 21.1392 0.0714441 21.3313 0.0284588 21.5363C-0.0145266 21.7414 -0.00874829 21.9537 0.0453286 22.1561C0.454317 23.6935 1.06612 25.1695 1.86462 26.5455C1.96917 26.7255 2.11431 26.8787 2.28849 26.9928C2.46267 27.1069 2.66107 27.1787 2.86791 27.2026L6.83423 27.6441C7.00033 27.818 7.16755 27.9852 7.33588 28.1457L7.79906 32.1221C7.82314 32.3291 7.89525 32.5276 8.00963 32.7017C8.12401 32.8759 8.27751 33.021 8.45788 33.1253C9.83433 33.9224 11.3103 34.5336 12.8473 34.943C13.0498 34.9968 13.2622 35.0023 13.4672 34.959C13.6723 34.9158 13.8643 34.8249 14.0278 34.6938L17.1363 32.2124C17.3771 32.219 17.6179 32.219 17.8587 32.2124L20.9756 34.7072C21.1392 34.838 21.3313 34.9286 21.5363 34.9715C21.7414 35.0145 21.9537 35.0087 22.1561 34.9547C23.6935 34.5457 25.1695 33.9339 26.5455 33.1354C26.7255 33.0308 26.8787 32.8857 26.9928 32.7115C27.1069 32.5373 27.1787 32.3389 27.2026 32.1321L27.6441 28.1658C27.818 28.0008 27.9852 27.8336 28.1457 27.6641L32.1221 27.1959C32.3291 27.1718 32.5276 27.0997 32.7017 26.9854C32.8759 26.871 33.021 26.7175 33.1253 26.5371C33.9224 25.1607 34.5336 23.6847 34.943 22.1477C34.9968 21.9452 35.0023 21.7328 34.959 21.5278C34.9158 21.3227 34.8249 21.1307 34.6938 20.9672L32.2124 17.8587ZM29.5202 16.7718C29.5486 17.2552 29.5486 17.7398 29.5202 18.2232C29.5003 18.5541 29.604 18.8807 29.8112 19.1395L32.1839 22.1042C31.9117 22.9695 31.563 23.8089 31.1422 24.6125L27.3631 25.0405C27.034 25.0771 26.7302 25.2344 26.5103 25.482C26.1885 25.844 25.8457 26.1868 25.4836 26.5087C25.236 26.7285 25.0787 27.0324 25.0422 27.3615L24.6225 31.1372C23.819 31.5582 22.9796 31.9069 22.1143 32.1789L19.1479 29.8061C18.9105 29.6165 18.6157 29.5133 18.3118 29.5135H18.2316C17.7482 29.5419 17.2635 29.5419 16.7801 29.5135C16.4492 29.4936 16.1226 29.5973 15.8638 29.8045L12.8907 32.1789C12.0255 31.9066 11.1861 31.558 10.3825 31.1372L9.95445 27.3631C9.91792 27.034 9.76063 26.7302 9.51301 26.5103C9.151 26.1885 8.80818 25.8457 8.48631 25.4836C8.26648 25.236 7.96262 25.0787 7.63352 25.0422L3.85782 24.6208C3.43676 23.8174 3.08813 22.978 2.81607 22.1126L5.18884 19.1462C5.39603 18.8874 5.49972 18.5608 5.4798 18.2299C5.45137 17.7465 5.45137 17.2619 5.4798 16.7785C5.49972 16.4475 5.39603 16.121 5.18884 15.8621L2.81607 12.8907C3.08834 12.0255 3.43696 11.1861 3.85782 10.3825L7.63184 9.95445C7.96095 9.91792 8.26481 9.76063 8.48464 9.51301C8.80651 9.151 9.14933 8.80818 9.51133 8.48631C9.75994 8.26633 9.91788 7.96178 9.95445 7.63184L10.3742 3.85782C11.1776 3.43676 12.017 3.08813 12.8824 2.81607L15.8488 5.18884C16.1076 5.39603 16.4341 5.49972 16.7651 5.4798C17.2485 5.45137 17.7331 5.45137 18.2165 5.4798C18.5475 5.49972 18.874 5.39603 19.1328 5.18884L22.1042 2.81607C22.9695 3.08834 23.8089 3.43696 24.6125 3.85782L25.0405 7.63184C25.0771 7.96095 25.2344 8.26481 25.482 8.48464C25.844 8.80651 26.1868 9.14933 26.5087 9.51133C26.7285 9.75896 27.0324 9.91625 27.3615 9.95278L31.1372 10.3725C31.5582 11.176 31.9069 12.0153 32.1789 12.8807L29.8061 15.8471C29.597 16.1081 29.4932 16.438 29.5152 16.7718H29.5202Z" fill="white"/>
</svg>
