<svg width="41" height="41" viewBox="0 0 41 41" fill="none" xmlns="http://www.w3.org/2000/svg">
<path d="M20.3125 0C16.2951 0 12.3679 1.19131 9.02749 3.42327C5.68711 5.65524 3.08361 8.82762 1.54621 12.5392C0.00880109 16.2509 -0.393454 20.335 0.390308 24.2753C1.17407 28.2155 3.10865 31.8349 5.9494 34.6756C8.79016 37.5164 12.4095 39.4509 16.3497 40.2347C20.29 41.0185 24.3741 40.6162 28.0858 39.0788C31.7974 37.5414 34.9698 34.9379 37.2017 31.5975C39.4337 28.2571 40.625 24.3299 40.625 20.3125C40.6193 14.927 38.4774 9.76378 34.6693 5.95567C30.8612 2.14757 25.698 0.00568715 20.3125 0ZM21.875 3.19727C22.9328 3.29379 23.9791 3.48998 25 3.7832V36.8496C23.9791 37.1428 22.9328 37.339 21.875 37.4355V3.19727ZM28.125 5.00586C29.2386 5.57602 30.2865 6.26633 31.25 7.06445V33.5605C30.2865 34.3587 29.2386 35.049 28.125 35.6191V5.00586ZM3.12501 20.3125C3.13016 16.0262 4.73473 11.8961 7.62467 8.7305C10.5146 5.56493 14.4819 3.59179 18.75 3.19727V37.4277C14.4819 37.0332 10.5146 35.0601 7.62467 31.8945C4.73473 28.7289 3.13016 24.5988 3.12501 20.3125ZM34.375 30.1836V10.4414C36.4086 13.3313 37.5001 16.7788 37.5001 20.3125C37.5001 23.8462 36.4086 27.2937 34.375 30.1836Z" fill="white"/>
</svg>
