<svg width="41" height="46" viewBox="0 0 41 46" fill="none" xmlns="http://www.w3.org/2000/svg">
<path d="M26.3008 35.2394L20.0508 44.6144C19.9369 44.7853 19.7905 44.932 19.6199 45.0462C19.4493 45.1605 19.2579 45.24 19.0566 45.2802C18.65 45.3616 18.2278 45.278 17.8828 45.048C17.5378 44.818 17.2983 44.4604 17.217 44.0539C17.1357 43.6473 17.2192 43.2251 17.4492 42.8801L23.6992 33.5051C23.9292 33.1601 24.2868 32.9206 24.6934 32.8393C25.1 32.758 25.5222 32.8415 25.8672 33.0715C26.2122 33.3015 26.4517 33.6591 26.533 34.0657C26.6143 34.4722 26.5308 34.8945 26.3008 35.2394ZM40.625 14.841C40.6209 18.7765 39.0556 22.5497 36.2728 25.3326C33.49 28.1154 29.7168 29.6806 25.7812 29.6848H21.1484L15.3633 38.3644C15.2494 38.5353 15.103 38.682 14.9324 38.7962C14.7618 38.9105 14.5704 38.99 14.3691 39.0302C14.1678 39.0705 13.9605 39.0707 13.7591 39.0309C13.5577 38.991 13.3661 38.9119 13.1953 38.798C13.0245 38.6842 12.8778 38.5377 12.7635 38.3672C12.6493 38.1966 12.5698 38.0052 12.5295 37.8039C12.4893 37.6025 12.489 37.3953 12.5289 37.1939C12.5687 36.9925 12.6478 36.8009 12.7617 36.6301L17.3926 29.6848H10.1562C7.46264 29.6848 4.87936 28.6147 2.9747 26.7101C1.07003 24.8054 0 22.2221 0 19.5285C0 16.8349 1.07003 14.2516 2.9747 12.347C4.87936 10.4423 7.46264 9.37226 10.1562 9.37226C10.7401 9.37275 11.3229 9.42241 11.8984 9.52069C13.1446 6.28391 15.4837 3.585 18.5105 1.89157C21.5374 0.19814 25.0613 -0.38312 28.4717 0.248499C31.882 0.880118 34.964 2.68482 37.1836 5.34993C39.4033 8.01504 40.6207 11.3726 40.625 14.841ZM37.5 14.841C37.4875 11.7981 36.2931 8.87921 34.1689 6.70044C32.0448 4.52166 29.1571 3.25355 26.1155 3.16382C23.074 3.0741 20.1166 4.16978 17.8677 6.21955C15.6188 8.26932 14.2544 11.1128 14.0625 14.1496C14.0507 14.3548 13.9986 14.5556 13.9092 14.7407C13.8198 14.9258 13.6948 15.0914 13.5413 15.2281C13.2315 15.5043 12.8246 15.6461 12.4102 15.6223C11.9958 15.5984 11.6078 15.411 11.3316 15.1011C11.0554 14.7912 10.9137 14.3843 10.9375 13.9699C10.9648 13.4933 11.015 13.0226 11.0879 12.5578C10.7789 12.5181 10.4678 12.4979 10.1562 12.4973C8.29145 12.4973 6.50302 13.238 5.18441 14.5567C3.86579 15.8753 3.125 17.6637 3.125 19.5285C3.125 21.3933 3.86579 23.1817 5.18441 24.5003C6.50302 25.819 8.29145 26.5598 10.1562 26.5598H25.7812C28.8881 26.5561 31.8668 25.3203 34.0637 23.1234C36.2606 20.9265 37.4964 17.9479 37.5 14.841Z" fill="white"/>
</svg>
